<?xml version="1.0" encoding="utf-8"?>
<!-- Generator: Adobe Illustrator 23.0.5, SVG Export Plug-In . SVG Version: 6.00 Build 0)  -->
<svg version="1.1" id="Layer_1" xmlns="http://www.w3.org/2000/svg" xmlns:xlink="http://www.w3.org/1999/xlink" x="0px" y="0px"
	 viewBox="0 0 360 156.9" style="enable-background:new 0 0 360 156.9;" xml:space="preserve">
<style type="text/css">
	
		.st0{opacity:0.31;fill:#353535;stroke:#353535;stroke-width:6;stroke-linecap:round;stroke-linejoin:round;stroke-miterlimit:10;enable-background:new    ;}
	.st1{fill:#14B0BF;}
	.st2{fill:#24C1C9;}
	.st3{fill:#353535;}
	.st4{fill:none;stroke:#353535;stroke-width:7;stroke-linecap:round;stroke-linejoin:round;stroke-miterlimit:10;}
	.st5{fill:none;stroke:#194254;stroke-width:6;stroke-linecap:round;stroke-linejoin:round;stroke-miterlimit:10;}
	.st6{fill:#FCE18D;}
	.st7{opacity:0.2;fill:#2C5871;enable-background:new    ;}
	.st8{fill:none;stroke:#EAE9DA;stroke-width:4;stroke-linecap:round;stroke-linejoin:round;stroke-miterlimit:10;}
	.st9{fill:#2C5871;}
	.st10{fill:#3D6D82;}
	.st11{fill:none;stroke:#EAE9DA;stroke-width:2;stroke-linecap:round;stroke-linejoin:round;stroke-miterlimit:10;}
	.st12{fill:none;stroke:#EAE9DA;stroke-linecap:round;stroke-linejoin:round;stroke-miterlimit:10;}
</style>
<g>
	<path id="XMLID_135_" class="st0" d="M357,44.5V15.9c0-3.3-2.7-6-6-6H9c-3.3,0-6,2.7-6,6v28.6c13.3,0,24,10.7,24,24
		c0,13.3-10.7,24-24,24v59.4c0,1.1,0.9,2,2,2h204.4v-23h16.5v23H355c1.1,0,2-0.9,2-2V92.5c-13.3,0-24-10.7-24-24
		S343.7,44.5,357,44.5z M22.2,130.9c-5,0-9-4-9-9s4-9,9-9s9,4,9,9S27.2,130.9,22.2,130.9z M338.2,112.9c5,0,9,4,9,9s-4,9-9,9
		s-9-4-9-9S333.2,112.9,338.2,112.9z"/>
	<path id="XMLID_164_" class="st1" d="M357,37.5V8.9c0-3.3-2.7-6-6-6H9c-3.3,0-6,2.7-6,6v28.6c13.3,0,24,10.7,24,24
		c0,13.3-10.7,24-24,24v59.4c0,1.1,0.9,2,2,2h204.4v-23h16.5v23H355c1.1,0,2-0.9,2-2V85.5c-13.3,0-24-10.7-24-24
		S343.7,37.5,357,37.5z M22.2,123.9c-5,0-9-4-9-9s4-9,9-9s9,4,9,9S27.2,123.9,22.2,123.9z M338.2,105.9c5,0,9,4,9,9s-4,9-9,9
		s-9-4-9-9S333.2,105.9,338.2,105.9z"/>
	<path id="XMLID_4_" class="st2" d="M357,11.9V6.5c0-2-2.7-3.6-6-3.6H9c-3.3,0-6,1.6-6,3.6v5.4H357z"/>
	<rect id="XMLID_140_" x="226" y="120.9" class="st3" width="131" height="26"/>
	<line id="XMLID_136_" class="st4" x1="41.8" y1="108" x2="318.2" y2="108"/>
	<circle id="XMLID_138_" class="st5" cx="338.2" cy="114.9" r="9"/>
	<rect id="XMLID_71_" x="3" y="120.9" class="st3" width="206.4" height="26"/>
	<g id="XMLID_139_">
		<g id="XMLID_294_">
			<path id="XMLID_296_" class="st6" d="M199.8,146.9h-7.2c-0.5,0-0.9-0.4-0.9-0.9v-18.1c0-1.7,1.3-3,3-3h3c1.7,0,3,1.3,3,3V146
				C200.8,146.5,200.4,146.9,199.8,146.9z"/>
		</g>
		<g id="XMLID_291_">
			<path id="XMLID_293_" class="st6" d="M185.8,146.9h-7.2c-0.5,0-0.9-0.4-0.9-0.9v-18.1c0-1.7,1.3-3,3-3h3c1.7,0,3,1.3,3,3V146
				C186.8,146.5,186.4,146.9,185.8,146.9z"/>
		</g>
		<g id="XMLID_288_">
			<path id="XMLID_290_" class="st6" d="M171.8,146.9h-7.2c-0.5,0-0.9-0.4-0.9-0.9v-18.1c0-1.7,1.3-3,3-3h3c1.7,0,3,1.3,3,3V146
				C172.8,146.5,172.4,146.9,171.8,146.9z"/>
		</g>
		<g id="XMLID_285_">
			<path id="XMLID_287_" class="st6" d="M157.8,146.9h-7.2c-0.5,0-0.9-0.4-0.9-0.9v-18.1c0-1.7,1.3-3,3-3h3c1.7,0,3,1.3,3,3V146
				C158.8,146.5,158.4,146.9,157.8,146.9z"/>
		</g>
		<g id="XMLID_282_">
			<path id="XMLID_284_" class="st6" d="M143.8,146.9h-7.2c-0.5,0-0.9-0.4-0.9-0.9v-18.1c0-1.7,1.3-3,3-3h3c1.7,0,3,1.3,3,3V146
				C144.8,146.5,144.4,146.9,143.8,146.9z"/>
		</g>
		<g id="XMLID_279_">
			<path id="XMLID_281_" class="st6" d="M129.8,146.9h-7.2c-0.5,0-0.9-0.4-0.9-0.9v-18.1c0-1.7,1.3-3,3-3h3c1.7,0,3,1.3,3,3V146
				C130.8,146.5,130.4,146.9,129.8,146.9z"/>
		</g>
		<g id="XMLID_276_">
			<path id="XMLID_278_" class="st6" d="M115.8,146.9h-7.2c-0.5,0-0.9-0.4-0.9-0.9v-18.1c0-1.7,1.3-3,3-3h3c1.7,0,3,1.3,3,3V146
				C116.8,146.5,116.4,146.9,115.8,146.9z"/>
		</g>
		<g id="XMLID_272_">
			<path id="XMLID_274_" class="st6" d="M101.8,146.9h-7.2c-0.5,0-0.9-0.4-0.9-0.9v-18.1c0-1.7,1.3-3,3-3h3c1.7,0,3,1.3,3,3V146
				C102.8,146.5,102.4,146.9,101.8,146.9z"/>
		</g>
		<g id="XMLID_269_">
			<path id="XMLID_271_" class="st6" d="M87.8,146.9h-7.2c-0.5,0-0.9-0.4-0.9-0.9v-18.1c0-1.7,1.3-3,3-3h3c1.7,0,3,1.3,3,3V146
				C88.8,146.5,88.4,146.9,87.8,146.9z"/>
		</g>
		<g id="XMLID_266_">
			<path id="XMLID_268_" class="st6" d="M73.8,146.9h-7.2c-0.5,0-0.9-0.4-0.9-0.9v-18.1c0-1.7,1.3-3,3-3h3c1.7,0,3,1.3,3,3V146
				C74.8,146.5,74.4,146.9,73.8,146.9z"/>
		</g>
		<g id="XMLID_263_">
			<path id="XMLID_265_" class="st6" d="M59.8,146.9h-7.2c-0.5,0-0.9-0.4-0.9-0.9v-18.1c0-1.7,1.3-3,3-3h3c1.7,0,3,1.3,3,3V146
				C60.8,146.5,60.4,146.9,59.8,146.9z"/>
		</g>
		<g id="XMLID_260_">
			<path id="XMLID_262_" class="st6" d="M45.8,146.9h-7.2c-0.5,0-0.9-0.4-0.9-0.9v-18.1c0-1.7,1.3-3,3-3h3c1.7,0,3,1.3,3,3V146
				C46.8,146.5,46.4,146.9,45.8,146.9z"/>
		</g>
	</g>
	<g id="XMLID_141_">
		<g id="XMLID_249_">
			<path id="XMLID_251_" class="st6" d="M327.6,146.9h-9v-19c0-1.7,1.3-3,3-3h3c1.7,0,3,1.3,3,3V146.9z"/>
		</g>
		<g id="XMLID_241_">
			<path id="XMLID_248_" class="st6" d="M313.6,146.9h-9v-19c0-1.7,1.3-3,3-3h3c1.7,0,3,1.3,3,3V146.9z"/>
		</g>
		<g id="XMLID_238_">
			<path id="XMLID_240_" class="st6" d="M299.6,146.9h-9v-19c0-1.7,1.3-3,3-3h3c1.7,0,3,1.3,3,3V146.9z"/>
		</g>
		<g id="XMLID_234_">
			<path id="XMLID_236_" class="st6" d="M285.6,146.9h-9v-19c0-1.7,1.3-3,3-3h3c1.7,0,3,1.3,3,3V146.9z"/>
		</g>
		<g id="XMLID_231_">
			<path id="XMLID_233_" class="st6" d="M271.6,146.9h-9v-19c0-1.7,1.3-3,3-3h3c1.7,0,3,1.3,3,3V146.9z"/>
		</g>
		<g id="XMLID_228_">
			<path id="XMLID_230_" class="st6" d="M257.6,146.9h-9v-19c0-1.7,1.3-3,3-3h3c1.7,0,3,1.3,3,3V146.9z"/>
		</g>
		<g id="XMLID_225_">
			<path id="XMLID_227_" class="st6" d="M243.6,146.9h-9v-19c0-1.7,1.3-3,3-3h3c1.7,0,3,1.3,3,3V146.9z"/>
		</g>
	</g>
	<path id="XMLID_103_" class="st5" d="M333,61.5c0-12,8.8-22,20.3-23.7c2.1-0.3,3.7-2,3.7-4.1V13.2C357,7.6,352.4,3,346.8,3H13.2
		C7.6,3,3,7.6,3,13.2v20.5c0,2.1,1.6,3.8,3.7,4.1C18.2,39.6,27,49.5,27,61.5c0,12-8.8,22-20.3,23.7c-2.1,0.3-3.7,2-3.7,4.1v51.4
		c0,3.4,2.8,6.2,6.2,6.2h196c2.3,0,4.2-1.9,4.2-4.2v-18.8h16.5v18.8c0,2.3,1.9,4.2,4.2,4.2h120.7c3.4,0,6.2-2.8,6.2-6.2V89.3
		c0-2.1-1.6-3.8-3.7-4.1C341.8,83.4,333,73.5,333,61.5z"/>
	<circle id="XMLID_39_" class="st5" cx="22.2" cy="114.9" r="9"/>
	<g>
		<path id="XMLID_137_" class="st7" d="M85.8,94.5h-34c-2.2,0-4-1.8-4-4v-50c0-2.2,1.8-4,4-4h34c2.2,0,4,1.8,4,4v50
			C89.8,92.7,88,94.5,85.8,94.5z"/>
		<g id="XMLID_8_">
			<g>
				<g id="XMLID_348_">
					<line id="XMLID_349_" class="st8" x1="41.8" y1="85.5" x2="47.8" y2="85.5"/>
				</g>
				<g id="XMLID_346_">
					<line id="XMLID_347_" class="st8" x1="41.8" y1="77.5" x2="47.8" y2="77.5"/>
				</g>
				<g id="XMLID_344_">
					<line id="XMLID_345_" class="st8" x1="41.8" y1="69.5" x2="47.8" y2="69.5"/>
				</g>
				<g id="XMLID_342_">
					<line id="XMLID_343_" class="st8" x1="41.8" y1="61.5" x2="47.8" y2="61.5"/>
				</g>
				<g id="XMLID_340_">
					<line id="XMLID_341_" class="st8" x1="41.8" y1="53.5" x2="47.8" y2="53.5"/>
				</g>
				<g id="XMLID_338_">
					<line id="XMLID_339_" class="st8" x1="41.8" y1="45.5" x2="47.8" y2="45.5"/>
				</g>
				<g id="XMLID_336_">
					<line id="XMLID_337_" class="st8" x1="41.8" y1="37.5" x2="47.8" y2="37.5"/>
				</g>
			</g>
		</g>
		<g id="XMLID_17_">
			<g id="XMLID_36_">
				<line id="XMLID_37_" class="st8" x1="89.8" y1="85.5" x2="95.8" y2="85.5"/>
			</g>
			<g id="XMLID_34_">
				<line id="XMLID_35_" class="st8" x1="89.8" y1="77.5" x2="95.8" y2="77.5"/>
			</g>
			<g id="XMLID_32_">
				<line id="XMLID_33_" class="st8" x1="89.8" y1="69.5" x2="95.8" y2="69.5"/>
			</g>
			<g id="XMLID_30_">
				<line id="XMLID_31_" class="st8" x1="89.8" y1="61.5" x2="95.8" y2="61.5"/>
			</g>
			<g id="XMLID_28_">
				<line id="XMLID_29_" class="st8" x1="89.8" y1="53.5" x2="95.8" y2="53.5"/>
			</g>
			<g id="XMLID_26_">
				<line id="XMLID_27_" class="st8" x1="89.8" y1="45.5" x2="95.8" y2="45.5"/>
			</g>
			<g id="XMLID_24_">
				<line id="XMLID_25_" class="st8" x1="89.8" y1="37.5" x2="95.8" y2="37.5"/>
			</g>
		</g>
		<path id="XMLID_5_" class="st9" d="M85.8,90.5h-34c-2.2,0-4-1.8-4-4v-50c0-2.2,1.8-4,4-4h34c2.2,0,4,1.8,4,4v50
			C89.8,88.7,88,90.5,85.8,90.5z"/>
		<path id="XMLID_144_" class="st10" d="M51.8,84.8V38.2c0-1,0.8-1.7,1.7-1.7h30.6c1,0,1.7,0.8,1.7,1.7v46.6c0,1-0.8,1.7-1.7,1.7
			H53.5C52.6,86.5,51.8,85.7,51.8,84.8z"/>
		<polyline id="XMLID_143_" class="st11" points="58.5,47.6 58.5,61.5 58.5,74.9 		"/>
		<line id="XMLID_166_" class="st12" x1="62.9" y1="53.5" x2="62.9" y2="69"/>
		<line id="XMLID_146_" class="st12" x1="80.3" y1="49.2" x2="80.3" y2="73.2"/>
	</g>
	<g>
		<path id="XMLID_178_" class="st7" d="M159.9,94.5h-34c-2.2,0-4-1.8-4-4v-50c0-2.2,1.8-4,4-4h34c2.2,0,4,1.8,4,4v50
			C163.9,92.7,162.2,94.5,159.9,94.5z"/>
		<g id="XMLID_55_">
			<g id="XMLID_68_">
				<line id="XMLID_69_" class="st8" x1="115.9" y1="85.5" x2="121.9" y2="85.5"/>
			</g>
			<g id="XMLID_66_">
				<line id="XMLID_67_" class="st8" x1="115.9" y1="77.5" x2="121.9" y2="77.5"/>
			</g>
			<g id="XMLID_64_">
				<line id="XMLID_65_" class="st8" x1="115.9" y1="69.5" x2="121.9" y2="69.5"/>
			</g>
			<g id="XMLID_62_">
				<line id="XMLID_63_" class="st8" x1="115.9" y1="61.5" x2="121.9" y2="61.5"/>
			</g>
			<g id="XMLID_60_">
				<line id="XMLID_61_" class="st8" x1="115.9" y1="53.5" x2="121.9" y2="53.5"/>
			</g>
			<g id="XMLID_58_">
				<line id="XMLID_59_" class="st8" x1="115.9" y1="45.5" x2="121.9" y2="45.5"/>
			</g>
			<g id="XMLID_56_">
				<line id="XMLID_57_" class="st8" x1="115.9" y1="37.5" x2="121.9" y2="37.5"/>
			</g>
		</g>
		<g id="XMLID_40_">
			<g id="XMLID_53_">
				<line id="XMLID_54_" class="st8" x1="163.9" y1="85.5" x2="169.9" y2="85.5"/>
			</g>
			<g id="XMLID_51_">
				<line id="XMLID_52_" class="st8" x1="163.9" y1="77.5" x2="169.9" y2="77.5"/>
			</g>
			<g id="XMLID_49_">
				<line id="XMLID_50_" class="st8" x1="163.9" y1="69.5" x2="169.9" y2="69.5"/>
			</g>
			<g id="XMLID_47_">
				<line id="XMLID_48_" class="st8" x1="163.9" y1="61.5" x2="169.9" y2="61.5"/>
			</g>
			<g id="XMLID_45_">
				<line id="XMLID_46_" class="st8" x1="163.9" y1="53.5" x2="169.9" y2="53.5"/>
			</g>
			<g id="XMLID_43_">
				<line id="XMLID_44_" class="st8" x1="163.9" y1="45.5" x2="169.9" y2="45.5"/>
			</g>
			<g id="XMLID_41_">
				<line id="XMLID_42_" class="st8" x1="163.9" y1="37.5" x2="169.9" y2="37.5"/>
			</g>
		</g>
		<path id="XMLID_70_" class="st9" d="M159.9,90.5h-34c-2.2,0-4-1.8-4-4v-50c0-2.2,1.8-4,4-4h34c2.2,0,4,1.8,4,4v50
			C163.9,88.7,162.2,90.5,159.9,90.5z"/>
		<path id="XMLID_148_" class="st10" d="M125.9,84.8V38.2c0-1,0.8-1.7,1.7-1.7h30.6c1,0,1.7,0.8,1.7,1.7v46.6c0,1-0.8,1.7-1.7,1.7
			h-30.6C126.7,86.5,125.9,85.7,125.9,84.8z"/>
		<polyline id="XMLID_186_" class="st11" points="132.6,47.6 132.6,61.5 132.6,74.9 		"/>
		<line id="XMLID_177_" class="st12" x1="137.1" y1="53.5" x2="137.1" y2="69"/>
		<line id="XMLID_6_" class="st12" x1="154.4" y1="49.2" x2="154.4" y2="73.2"/>
	</g>
	<g>
		<path id="XMLID_175_" class="st7" d="M234.1,94.5h-34c-2.2,0-4-1.8-4-4v-50c0-2.2,1.8-4,4-4h34c2.2,0,4,1.8,4,4v50
			C238.1,92.7,236.3,94.5,234.1,94.5z"/>
		<g id="XMLID_87_">
			<g id="XMLID_100_">
				<line id="XMLID_101_" class="st8" x1="190.1" y1="85.5" x2="196.1" y2="85.5"/>
			</g>
			<g id="XMLID_98_">
				<line id="XMLID_99_" class="st8" x1="190.1" y1="77.5" x2="196.1" y2="77.5"/>
			</g>
			<g id="XMLID_96_">
				<line id="XMLID_97_" class="st8" x1="190.1" y1="69.5" x2="196.1" y2="69.5"/>
			</g>
			<g id="XMLID_94_">
				<line id="XMLID_95_" class="st8" x1="190.1" y1="61.5" x2="196.1" y2="61.5"/>
			</g>
			<g id="XMLID_92_">
				<line id="XMLID_93_" class="st8" x1="190.1" y1="53.5" x2="196.1" y2="53.5"/>
			</g>
			<g id="XMLID_90_">
				<line id="XMLID_91_" class="st8" x1="190.1" y1="45.5" x2="196.1" y2="45.5"/>
			</g>
			<g id="XMLID_88_">
				<line id="XMLID_89_" class="st8" x1="190.1" y1="37.5" x2="196.1" y2="37.5"/>
			</g>
		</g>
		<g id="XMLID_72_">
			<g id="XMLID_85_">
				<line id="XMLID_86_" class="st8" x1="238.1" y1="85.5" x2="244.1" y2="85.5"/>
			</g>
			<g id="XMLID_83_">
				<line id="XMLID_84_" class="st8" x1="238.1" y1="77.5" x2="244.1" y2="77.5"/>
			</g>
			<g id="XMLID_81_">
				<line id="XMLID_82_" class="st8" x1="238.1" y1="69.5" x2="244.1" y2="69.5"/>
			</g>
			<g id="XMLID_79_">
				<line id="XMLID_80_" class="st8" x1="238.1" y1="61.5" x2="244.1" y2="61.5"/>
			</g>
			<g id="XMLID_77_">
				<line id="XMLID_78_" class="st8" x1="238.1" y1="53.5" x2="244.1" y2="53.5"/>
			</g>
			<g id="XMLID_75_">
				<line id="XMLID_76_" class="st8" x1="238.1" y1="45.5" x2="244.1" y2="45.5"/>
			</g>
			<g id="XMLID_73_">
				<line id="XMLID_74_" class="st8" x1="238.1" y1="37.5" x2="244.1" y2="37.5"/>
			</g>
		</g>
		<path id="XMLID_102_" class="st9" d="M234.1,90.5h-34c-2.2,0-4-1.8-4-4v-50c0-2.2,1.8-4,4-4h34c2.2,0,4,1.8,4,4v50
			C238.1,88.7,236.3,90.5,234.1,90.5z"/>
		<path id="XMLID_147_" class="st10" d="M200.1,84.8V38.2c0-1,0.8-1.7,1.7-1.7h30.6c1,0,1.7,0.8,1.7,1.7v46.6c0,1-0.8,1.7-1.7,1.7
			h-30.6C200.8,86.5,200.1,85.7,200.1,84.8z"/>
		<polyline id="XMLID_200_" class="st11" points="206.8,47.6 206.8,61.5 206.8,74.9 		"/>
		<line id="XMLID_198_" class="st12" x1="211.2" y1="53.5" x2="211.2" y2="69"/>
		<line id="XMLID_3_" class="st12" x1="228.6" y1="49.2" x2="228.6" y2="73.2"/>
	</g>
	<g>
		<path id="XMLID_151_" class="st7" d="M308.2,94.5h-34c-2.2,0-4-1.8-4-4v-50c0-2.2,1.8-4,4-4h34c2.2,0,4,1.8,4,4v50
			C312.2,92.7,310.4,94.5,308.2,94.5z"/>
		<g id="XMLID_119_">
			<g id="XMLID_132_">
				<line id="XMLID_133_" class="st8" x1="264.2" y1="85.5" x2="270.2" y2="85.5"/>
			</g>
			<g id="XMLID_130_">
				<line id="XMLID_131_" class="st8" x1="264.2" y1="77.5" x2="270.2" y2="77.5"/>
			</g>
			<g id="XMLID_128_">
				<line id="XMLID_129_" class="st8" x1="264.2" y1="69.5" x2="270.2" y2="69.5"/>
			</g>
			<g id="XMLID_126_">
				<line id="XMLID_127_" class="st8" x1="264.2" y1="61.5" x2="270.2" y2="61.5"/>
			</g>
			<g id="XMLID_124_">
				<line id="XMLID_125_" class="st8" x1="264.2" y1="53.5" x2="270.2" y2="53.5"/>
			</g>
			<g id="XMLID_122_">
				<line id="XMLID_123_" class="st8" x1="264.2" y1="45.5" x2="270.2" y2="45.5"/>
			</g>
			<g id="XMLID_120_">
				<line id="XMLID_121_" class="st8" x1="264.2" y1="37.5" x2="270.2" y2="37.5"/>
			</g>
		</g>
		<g id="XMLID_104_">
			<g id="XMLID_117_">
				<line id="XMLID_118_" class="st8" x1="312.2" y1="85.5" x2="318.2" y2="85.5"/>
			</g>
			<g id="XMLID_115_">
				<line id="XMLID_116_" class="st8" x1="312.2" y1="77.5" x2="318.2" y2="77.5"/>
			</g>
			<g id="XMLID_113_">
				<line id="XMLID_114_" class="st8" x1="312.2" y1="69.5" x2="318.2" y2="69.5"/>
			</g>
			<g id="XMLID_111_">
				<line id="XMLID_112_" class="st8" x1="312.2" y1="61.5" x2="318.2" y2="61.5"/>
			</g>
			<g id="XMLID_109_">
				<line id="XMLID_110_" class="st8" x1="312.2" y1="53.5" x2="318.2" y2="53.5"/>
			</g>
			<g id="XMLID_107_">
				<line id="XMLID_108_" class="st8" x1="312.2" y1="45.5" x2="318.2" y2="45.5"/>
			</g>
			<g id="XMLID_105_">
				<line id="XMLID_106_" class="st8" x1="312.2" y1="37.5" x2="318.2" y2="37.5"/>
			</g>
		</g>
		<path id="XMLID_134_" class="st9" d="M308.2,90.5h-34c-2.2,0-4-1.8-4-4v-50c0-2.2,1.8-4,4-4h34c2.2,0,4,1.8,4,4v50
			C312.2,88.7,310.4,90.5,308.2,90.5z"/>
		<path id="XMLID_145_" class="st10" d="M274.2,84.8V38.2c0-1,0.8-1.7,1.7-1.7h30.6c1,0,1.7,0.8,1.7,1.7v46.6c0,1-0.8,1.7-1.7,1.7
			h-30.6C274.9,86.5,274.2,85.7,274.2,84.8z"/>
		<polyline id="XMLID_203_" class="st11" points="280.9,47.6 280.9,61.5 280.9,74.9 		"/>
		<line id="XMLID_202_" class="st12" x1="285.3" y1="53.5" x2="285.3" y2="69"/>
		<line id="XMLID_2_" class="st12" x1="302.7" y1="49.2" x2="302.7" y2="73.2"/>
	</g>
</g>
</svg>
